# xmcd
#
# Track frame offsets: 
#        150
#        51730
#        60880
#        77454
#        113575
#        135176
#        153991
#        182422
#        195779
#        205261
#
# Disc length: 3113 seconds
#
# Revision: 0
# Processed by: cddbd v1.5.2PL0 Copyright (c) Steve Scherf et al.
# Submitted via: ExactAudioCopy v1.0b3
#
DISCID=6f0c270a
DTITLE=Hannu Salama and Hepa Halme - Auringonnousun talosta helvetin  ku
DTITLE=useen
DYEAR=2015
DGENRE=Freestyle
TTITLE0=6-10-36 sotalapsi
TTITLE1=Jäähyväiset lumolle I
TTITLE2=Larin-Kyöstin muisto I
TTITLE3=Lindforsin tusina
TTITLE4=Ostis I and II
TTITLE5=Alla Etelän ristin
TTITLE6=Hyvästi, kirveenvarsi!
TTITLE7=Larin-Kyöstin muisto II
TTITLE8=Jäähyväiset lumolle II
TTITLE9=Triptyykki: I Saaristopassi II Kaamoksen kehto III Heidän yhte
TTITLE9=inen uskonsa
EXTD=
EXTT0=
EXTT1=
EXTT2=
EXTT3=
EXTT4=
EXTT5=
EXTT6=
EXTT7=
EXTT8=
EXTT9=
PLAYORDER=
